HIERARCHY
ROOT Hips
{
  OFFSET -377.88 91.2513 1662.48
  CHANNELS 6 Xposition Yposition Zposition Zrotation Xrotation Yrotation
  JOINT Spine
  {
    OFFSET -2.88016e-05 8 0.000146082
    CHANNELS 6 Xposition Yposition Zposition Zrotation Xrotation Yrotation
    JOINT Spine1
    {
      OFFSET 2.74527e-05 8 -5.28852e-05
      CHANNELS 6 Xposition Yposition Zposition Zrotation Xrotation Yrotation
      JOINT Spine2
      {
        OFFSET -0.000369088 8 -0.00044713
        CHANNELS 6 Xposition Yposition Zposition Zrotation Xrotation Yrotation
        JOINT Spine3
        {
          OFFSET 0 8 0
          CHANNELS 6 Xposition Yposition Zposition Zrotation Xrotation Yrotation
          JOINT Neck
          {
            OFFSET -5.39732e-05 17 0.000496323
            CHANNELS 6 Xposition Yposition Zposition Zrotation Xrotation Yrotation
            JOINT Head
            {
              OFFSET -0.000170467 10.8 -0.000396187
              CHANNELS 6 Xposition Yposition Zposition Zrotation Xrotation Yrotation
              End Site
              {
                OFFSET 0 20.25 0
              }
            }
          }
          JOINT LeftShoulder
          {
            OFFSET 4.99989 17 0.000406402
            CHANNELS 6 Xposition Yposition Zposition Zrotation Xrotation Yrotation
            JOINT LeftShoulder2
            {
              OFFSET 6.45 0 0
              CHANNELS 6 Xposition Yposition Zposition Zrotation Xrotation Yrotation
              JOINT LeftArm
              {
                OFFSET 6.45003 -0.00010403 -6.79213e-05
                CHANNELS 6 Xposition Yposition Zposition Zrotation Xrotation Yrotation
                JOINT LeftForeArm
                {
                  OFFSET -0.00694736 -32.3856 -1.99
                  CHANNELS 6 Xposition Yposition Zposition Zrotation Xrotation Yrotation
                  JOINT LeftHand
                  {
                    OFFSET -2.61824e-05 -25.65 1.99991
                    CHANNELS 6 Xposition Yposition Zposition Zrotation Xrotation Yrotation
                    JOINT LeftHandThumb1
                    {
                      OFFSET -0.498874 -1.49923 2.64837
                      CHANNELS 6 Xposition Yposition Zposition Zrotation Xrotation Yrotation
                      JOINT LeftHandThumb2
                      {
                        OFFSET 0.00273175 -3.79476 3.69998
                        CHANNELS 6 Xposition Yposition Zposition Zrotation Xrotation Yrotation
                        JOINT LeftHandThumb3
                        {
                          OFFSET 0.000131983 -2.99782 2.6988
                          CHANNELS 6 Xposition Yposition Zposition Zrotation Xrotation Yrotation
                          End Site
                          {
                            OFFSET 0.00173202 -2.29826 1.79439
                          }
                        }
                      }
                    }
                    JOINT LeftHandIndex
                    {
                      OFFSET -0.00411416 -1.9039 1.60618
                      CHANNELS 6 Xposition Yposition Zposition Zrotation Xrotation Yrotation
                      JOINT LeftHandIndex1
                      {
                        OFFSET -0.0129602 -8.3124 1.92062
                        CHANNELS 6 Xposition Yposition Zposition Zrotation Xrotation Yrotation
                        JOINT LeftHandIndex2
                        {
                          OFFSET 0.0031851 -4.49658 -0.00696905
                          CHANNELS 6 Xposition Yposition Zposition Zrotation Xrotation Yrotation
                          JOINT LeftHandIndex3
                          {
                            OFFSET 0.000898319 -3.39987 -5.81739e-05
                            CHANNELS 6 Xposition Yposition Zposition Zrotation Xrotation Yrotation
                            End Site
                            {
                              OFFSET -0.000805472 -2.6024 6.06951e-05
                            }
                          }
                        }
                      }
                    }
                    JOINT LeftHandMiddle
                    {
                      OFFSET -0.243404 -2.19392 0.389929
                      CHANNELS 6 Xposition Yposition Zposition Zrotation Xrotation Yrotation
                      JOINT LeftHandMiddle1
                      {
                        OFFSET 0.000251096 -8.29975 0.999604
                        CHANNELS 6 Xposition Yposition Zposition Zrotation Xrotation Yrotation
                        JOINT LeftHandMiddle2
                        {
                          OFFSET 0.00442685 -4.64673 -0.0145123
                          CHANNELS 6 Xposition Yposition Zposition Zrotation Xrotation Yrotation
                          JOINT LeftHandMiddle3
                          {
                            OFFSET 0.00243764 -3.30194 0.0102761
                            CHANNELS 6 Xposition Yposition Zposition Zrotation Xrotation Yrotation
                            End Site
                            {
                              OFFSET 0.000860507 -2.69927 0.00333042
                            }
                          }
                        }
                      }
                    }
                    JOINT LeftHandRing
                    {
                      OFFSET -0.501202 -2.15113 -0.798035
                      CHANNELS 6 Xposition Yposition Zposition Zrotation Xrotation Yrotation
                      JOINT LeftHandRing1
                      {
                        OFFSET 0.0109083 -7.73968 -0.216781
                        CHANNELS 6 Xposition Yposition Zposition Zrotation Xrotation Yrotation
                        JOINT LeftHandRing2
                        {
                          OFFSET -0.00181363 -3.80095 0.00177507
                          CHANNELS 6 Xposition Yposition Zposition Zrotation Xrotation Yrotation
                          JOINT LeftHandRing3
                          {
                            OFFSET -0.00349557 -3.39548 -0.00838262
                            CHANNELS 6 Xposition Yposition Zposition Zrotation Xrotation Yrotation
                            End Site
                            {
                              OFFSET 0.00327864 -2.5995 0.00510034
                            }
                          }
                        }
                      }
                    }
                    JOINT LeftHandPinky
                    {
                      OFFSET -0.742348 -1.74281 -1.86163
                      CHANNELS 6 Xposition Yposition Zposition Zrotation Xrotation Yrotation
                      JOINT LeftHandPinky1
                      {
                        OFFSET 0.00636814 -7.14454 -1.0098
                        CHANNELS 6 Xposition Yposition Zposition Zrotation Xrotation Yrotation
                        JOINT LeftHandPinky2
                        {
                          OFFSET 0.00530702 -2.99598 -0.0107652
                          CHANNELS 6 Xposition Yposition Zposition Zrotation Xrotation Yrotation
                          JOINT LeftHandPinky3
                          {
                            OFFSET 0.00123651 -2.35451 0.00728437
                            CHANNELS 6 Xposition Yposition Zposition Zrotation Xrotation Yrotation
                            End Site
                            {
                              OFFSET -0.000270836 -2.10073 0.000166484
                            }
                          }
                        }
                      }
                    }
                  }
                }
              }
            }
          }
          JOINT RightShoulder
          {
            OFFSET -5.00011 17 0.000638441
            CHANNELS 6 Xposition Yposition Zposition Zrotation Xrotation Yrotation
            JOINT RightShoulder2
            {
              OFFSET -6.45 0 0
              CHANNELS 6 Xposition Yposition Zposition Zrotation Xrotation Yrotation
              JOINT RightArm
              {
                OFFSET -6.44989 0.000100361 -0.000506265
                CHANNELS 6 Xposition Yposition Zposition Zrotation Xrotation Yrotation
                JOINT RightForeArm
                {
                  OFFSET -0.000179215 -32.4003 -1.99984
                  CHANNELS 6 Xposition Yposition Zposition Zrotation Xrotation Yrotation
                  JOINT RightHand
                  {
                    OFFSET 0.00199942 -25.6468 1.99768
                    CHANNELS 6 Xposition Yposition Zposition Zrotation Xrotation Yrotation
                    JOINT RightHandThumb1
                    {
                      OFFSET 0.500453 -1.50086 2.64925
                      CHANNELS 6 Xposition Yposition Zposition Zrotation Xrotation Yrotation
                      JOINT RightHandThumb2
                      {
                        OFFSET -0.0130646 -3.81613 3.71081
                        CHANNELS 6 Xposition Yposition Zposition Zrotation Xrotation Yrotation
                        JOINT RightHandThumb3
                        {
                          OFFSET 0.00282325 -3.00227 2.69345
                          CHANNELS 6 Xposition Yposition Zposition Zrotation Xrotation Yrotation
                          End Site
                          {
                            OFFSET -0.00320532 -2.29972 1.80434
                          }
                        }
                      }
                    }
                    JOINT RightHandIndex
                    {
                      OFFSET -0.00125837 -1.90286 1.60066
                      CHANNELS 6 Xposition Yposition Zposition Zrotation Xrotation Yrotation
                      JOINT RightHandIndex1
                      {
                        OFFSET 0.00149405 -8.30099 1.89798
                        CHANNELS 6 Xposition Yposition Zposition Zrotation Xrotation Yrotation
                        JOINT RightHandIndex2
                        {
                          OFFSET -0.000314776 -4.49901 -0.000496629
                          CHANNELS 6 Xposition Yposition Zposition Zrotation Xrotation Yrotation
                          JOINT RightHandIndex3
                          {
                            OFFSET -0.00274816 -3.40129 -0.000616434
                            CHANNELS 6 Xposition Yposition Zposition Zrotation Xrotation Yrotation
                            End Site
                            {
                              OFFSET -0.00127753 -2.60035 -0.000141707
                            }
                          }
                        }
                      }
                    }
                    JOINT RightHandMiddle
                    {
                      OFFSET 0.248751 -2.20323 0.400575
                      CHANNELS 6 Xposition Yposition Zposition Zrotation Xrotation Yrotation
                      JOINT RightHandMiddle1
                      {
                        OFFSET 0.0010206 -8.30037 0.998465
                        CHANNELS 6 Xposition Yposition Zposition Zrotation Xrotation Yrotation
                        JOINT RightHandMiddle2
                        {
                          OFFSET -0.00419701 -4.65181 0.00105662
                          CHANNELS 6 Xposition Yposition Zposition Zrotation Xrotation Yrotation
                          JOINT RightHandMiddle3
                          {
                            OFFSET -0.000342295 -3.30009 -0.000468366
                            CHANNELS 6 Xposition Yposition Zposition Zrotation Xrotation Yrotation
                            End Site
                            {
                              OFFSET 0.000978142 -2.7002 -0.00121085
                            }
                          }
                        }
                      }
                    }
                    JOINT RightHandRing
                    {
                      OFFSET 0.500208 -2.15002 -0.800275
                      CHANNELS 6 Xposition Yposition Zposition Zrotation Xrotation Yrotation
                      JOINT RightHandRing1
                      {
                        OFFSET -0.00161782 -7.75206 -0.200246
                        CHANNELS 6 Xposition Yposition Zposition Zrotation Xrotation Yrotation
                        JOINT RightHandRing2
                        {
                          OFFSET -7.04136e-05 -3.79979 -0.00022686
                          CHANNELS 6 Xposition Yposition Zposition Zrotation Xrotation Yrotation
                          JOINT RightHandRing3
                          {
                            OFFSET 5.97953e-05 -3.39994 0.00035326
                            CHANNELS 6 Xposition Yposition Zposition Zrotation Xrotation Yrotation
                            End Site
                            {
                              OFFSET -0.000284976 -2.59884 -0.000787839
                            }
                          }
                        }
                      }
                    }
                    JOINT RightHandPinky
                    {
                      OFFSET 0.749038 -1.74694 -1.84822
                      CHANNELS 6 Xposition Yposition Zposition Zrotation Xrotation Yrotation
                      JOINT RightHandPinky1
                      {
                        OFFSET 0.00312667 -7.14305 -1.00214
                        CHANNELS 6 Xposition Yposition Zposition Zrotation Xrotation Yrotation
                        JOINT RightHandPinky2
                        {
                          OFFSET 0.00519756 -3.00078 -0.00108167
                          CHANNELS 6 Xposition Yposition Zposition Zrotation Xrotation Yrotation
                          JOINT RightHandPinky3
                          {
                            OFFSET 0.00164941 -2.34792 -0.00241108
                            CHANNELS 6 Xposition Yposition Zposition Zrotation Xrotation Yrotation
                            End Site
                            {
                              OFFSET -0.000309946 -2.10001 0.000158035
                            }
                          }
                        }
                      }
                    }
                  }
                }
              }
            }
          }
        }
      }
    }
  }
  JOINT LeftUpLeg
  {
    OFFSET 8.00003 0 1.15997e-05
    CHANNELS 6 Xposition Yposition Zposition Zrotation Xrotation Yrotation
    JOINT LeftLeg
    {
      OFFSET -0.000619218 -44.9994 -1.0007
      CHANNELS 6 Xposition Yposition Zposition Zrotation Xrotation Yrotation
      JOINT LeftFoot
      {
        OFFSET -0.000718039 -40.9998 -2.00101
        CHANNELS 6 Xposition Yposition Zposition Zrotation Xrotation Yrotation
        JOINT LeftToeBase
        {
          OFFSET 0.000930911 -7.49995 12.4996
          CHANNELS 6 Xposition Yposition Zposition Zrotation Xrotation Yrotation
          JOINT LeftFootToe
          {
            OFFSET 0 0 4
            CHANNELS 6 Xposition Yposition Zposition Zrotation Xrotation Yrotation
            End Site
            {
              OFFSET 0 0 0
            }
          }
        }
      }
    }
  }
  JOINT RightUpLeg
  {
    OFFSET -8.00003 0 -1.15997e-05
    CHANNELS 6 Xposition Yposition Zposition Zrotation Xrotation Yrotation
    JOINT RightLeg
    {
      OFFSET 0.00111128 -44.9993 -0.999172
      CHANNELS 6 Xposition Yposition Zposition Zrotation Xrotation Yrotation
      JOINT RightFoot
      {
        OFFSET 0.00203852 -41.0065 -1.99925
        CHANNELS 6 Xposition Yposition Zposition Zrotation Xrotation Yrotation
        JOINT RightToeBase
        {
          OFFSET 0.00116018 -7.50005 12.5001
          CHANNELS 6 Xposition Yposition Zposition Zrotation Xrotation Yrotation
          JOINT RightFootToe
          {
            OFFSET 0 0 4
            CHANNELS 6 Xposition Yposition Zposition Zrotation Xrotation Yrotation
            End Site
            {
              OFFSET 0 0 0
            }
          }
        }
      }
    }
  }
}
MOTION
Frames:	3
Frame Time:	0.0111111
-371.771 91.1794 1661.6 1.25554 2.24503 -118.477 2.27374e-13 8 -5.68434e-14 2.94914 9.89178 17.1431 0 8 -1.7053e-13 0.661821 5.35202 6.39517 0 8 1.13687e-13 0.405735 2.67036 3.20624 2.27374e-13 8 1.7053e-13 0.404891 2.6632 3.19755 -2.27374e-13 17 -5.68434e-14 -0.0672601 -1.27 6.9551 2.27374e-13 10.8 0 0.0642015 -3.00935 16.2817 5 17 5.68434e-14 -0.00388555 -5.42463 6.28111 6.45 5.68434e-14 -1.13687e-13 -1.00286 0.200478 -2.84896 6.45 -8.52651e-14 -1.13687e-13 -11.1276 -73.6779 -18.2798 0 -32.4 -2 -35.3434 -26.0457 3.09278 -2.27374e-13 -25.65 2 40.9909 13.4927 3.38208 -0.5 -1.5 2.65 -17.321 -23.3338 14.0821 -2.27374e-13 -3.8 3.7 12.8838 24.4589 3.94017 0 -3 2.7 0.0413206 19.0661 -0.0122916 0 -1.9 1.6 3.54281e-06 -4.48981e-06 -2.61297e-06 0 -8.3 1.9 -8.64358 -21.5309 -1.5043 2.27374e-13 -4.5 0 -0.0712108 0.0404443 -0.0689291 0 -3.4 0 -0.000168431 0.0401383 -0.0665247 -0.25 -2.2 0.4 3.54281e-06 -4.48981e-06 -2.61297e-06 2.27374e-13 -8.3 1 -9.36182 -14.5153 -1.00649 0 -4.65 1.13687e-13 -37.3934 0.00164105 -0.000814857 0 -3.3 2.27374e-13 10.1124 0.0934384 0.0679093 -0.5 -2.15 -0.8 3.54281e-06 -4.48981e-06 -2.61297e-06 -2.27374e-13 -7.75 -0.2 -11.4942 -0.714437 0.269265 0 -3.8 0 -12.8448 0.305679 0.195291 0 -3.4 -2.27374e-13 -64.8174 -0.0432526 0.288496 -0.75 -1.75 -1.85 3.54281e-06 -4.48981e-06 -2.61297e-06 -2.27374e-13 -7.15 -1 -14.2936 6.74332 1.29502 -2.27374e-13 -3 0 -19.0146 -0.0120501 -0.0126797 -2.27374e-13 -2.35 0 -15.1733 -0.0055452 -0.0100558 -5 17 -5.68434e-14 2.05831 -5.61906 10.2176 -6.45 -5.68434e-14 -1.13687e-13 -1.68643 0.653292 -3.44252 -6.45 0 -1.13687e-13 -45.0031 -40.0561 -13.0379 -2.27374e-13 -32.4 -2 35.1958 -40.8561 20.3596 0 -25.65 2 -27.4145 26.2847 4.27285 0.5 -1.5 2.65 -51.6356 55.1416 -145.407 -2.27374e-13 -3.8 3.7 -3.58516 12.8212 -3.06438 1.13687e-13 -3 2.7 0.443191 46.6054 -0.350035 -2.27374e-13 -1.9 1.6 -1.66737e-06 8.94252e-06 1.67335e-06 0 -8.3 1.9 0.992218 8.4001 -0.0980739 -2.27374e-13 -4.5 2.27374e-13 7.8 1.68622 0.0181042 4.54747e-13 -3.4 0 7.31829 0.020129 0.0286012 0.25 -2.2 0.4 -1.66737e-06 8.94252e-06 1.67335e-06 -2.27374e-13 -8.3 1 27.0566 17.2431 -5.5687 0 -4.65 1.13687e-13 47.2908 48.3641 12.4085 5.68434e-14 -3.3 0 57.305 -0.00164455 -0.00783702 0.5 -2.15 -0.8 -1.66737e-06 8.94252e-06 1.67335e-06 -2.27374e-13 -7.75 -0.2 56.7758 15.5155 -12.5161 2.27374e-13 -3.8 0 22.3424 25.4904 5.58614 2.27374e-13 -3.4 0 32.243 0.000293784 0.0220965 0.75 -1.75 -1.85 -1.66737e-06 8.94252e-06 1.67335e-06 0 -7.15 -1 67.2498 13.9836 -15.448 -1.13687e-13 -3 0 11.1646 6.80853 0.201485 1.13687e-13 -2.35 0 12.6893 -0.0335834 -0.0372634 8 0 5.68434e-14 33.9995 -26.6636 27.5266 0 -45 -1 -27.786 23.75 9.20425 0 -41 -2 9.05001 6.71685 -20.5711 0 -7.5 12.5 -0.000268792 5.26476e-05 0.045067 -2.27374e-13 0 4 4.21528 -6.64396 3.7855 -8 0 -1.13687e-13 23.7044 -0.276296 -18.184 0 -45 -1 -45.1081 2.75034 10.1563 0 -41 -2 29.2486 -8.92518 3.98654 0 -7.5 12.5 -0.000341158 0.103398 0.00335567 0 0 4 -13.4582 0.756244 72.4868 
-371.542 91.1573 1661.62 1.34355 2.41547 -118.459 0 8 0 3.20199 9.86798 17.0805 2.27374e-13 8 -5.68434e-14 0.69822 5.38732 6.35808 0 8 1.7053e-13 0.423995 2.68758 3.18812 2.27374e-13 8 1.13687e-13 0.423577 2.67918 3.17917 0 17 -5.68434e-14 -0.0832814 -1.28112 7.00233 2.27374e-13 10.8 0 0.0310303 -3.03822 16.3925 5 17 0 0.129571 -5.30573 6.34254 6.45 0 0 -1.02153 0.159268 -2.93072 6.45 -5.68434e-14 0 -12.4559 -74.4568 -20.0845 2.27374e-13 -32.4 -2 -34.1895 -24.8139 3.52981 0 -25.65 2 41.2174 12.8202 3.06195 -0.5 -1.5 2.65 -17.5066 -23.2979 14.3988 2.27374e-13 -3.8 3.7 12.6606 24.1558 3.96843 0 -3 2.7 0.0424002 19.4884 -0.0123234 2.27374e-13 -1.9 1.6 3.54281e-06 -4.48981e-06 -2.61297e-06 -4.54747e-13 -8.3 1.9 -8.35621 -21.1953 -1.43802 2.27374e-13 -4.5 0 -0.0712108 0.0404443 -0.0689291 -2.27374e-13 -3.4 -5.68434e-14 -0.000168431 0.0401383 -0.0665247 -0.25 -2.2 0.4 3.54281e-06 -4.48981e-06 -2.61297e-06 2.27374e-13 -8.3 1 -9.80456 -14.0402 -1.0011 0 -4.65 1.13687e-13 -37.3934 0.00164105 -0.000814857 0 -3.3 2.84217e-13 9.27144 0.0776721 0.0566106 -0.5 -2.15 -0.8 3.54281e-06 -4.48981e-06 -2.61297e-06 -4.54747e-13 -7.75 -0.2 -13.3903 -0.145472 0.419528 0 -3.8 0 -16.7349 0.282959 0.185542 0 -3.4 -2.84217e-13 -67.5691 -0.0432528 0.236764 -0.75 -1.75 -1.85 3.54281e-06 -4.48981e-06 -2.61297e-06 -2.27374e-13 -7.15 -1 -17.288 7.2245 1.69917 0 -3 0 -19.1458 -0.000437441 -0.00617722 0 -2.35 0 -15.2593 0.000687336 -0.00394985 -5 17 0 2.05375 -5.65393 10.2002 -6.45 -2.84217e-14 -2.27374e-13 -1.70263 0.693135 -3.4823 -6.45 0 -1.13687e-13 -44.8859 -41.1878 -12.8534 0 -32.4 -2 33.6345 -40.8121 19.2846 2.27374e-13 -25.65 2 -28.0819 26.7454 5.43541 0.5 -1.5 2.65 -49.7043 56.0513 -146.731 -1.13687e-13 -3.8 3.7 -3.67132 13.0302 -3.06515 0 -3 2.7 0.427316 46.6097 -0.337427 0 -1.9 1.6 -1.66737e-06 8.94252e-06 1.67335e-06 2.27374e-13 -8.3 1.9 0.951864 8.2226 -0.0980295 0 -4.5 0 7.7993 1.68523 0.0181042 4.54747e-13 -3.4 -1.13687e-13 7.31715 0.020129 0.0286012 0.25 -2.2 0.4 -1.66737e-06 8.94252e-06 1.67335e-06 0 -8.3 1 26.9123 17.31 -5.56673 -2.27374e-13 -4.65 0 47.3081 48.3105 12.3704 -5.68434e-14 -3.3 0 57.2581 -0.00164455 -0.00783702 0.5 -2.15 -0.8 -1.66737e-06 8.94252e-06 1.67335e-06 0 -7.75 -0.2 56.6231 15.5905 -12.5215 2.27374e-13 -3.8 0 22.4313 25.7305 5.7083 1.13687e-13 -3.4 -2.27374e-13 32.4823 0.000293784 0.0220965 0.75 -1.75 -1.85 -1.66737e-06 8.94252e-06 1.67335e-06 2.27374e-13 -7.15 -1 67.2876 14.0981 -15.5483 0 -3 0 11.0204 6.71468 0.194502 0 -2.35 0 12.5458 -0.0335834 -0.0372634 8 0 -5.68434e-14 34.2196 -26.7789 27.538 -2.27374e-13 -45 -1 -27.703 23.6514 9.15713 0 -41 -2 8.90529 6.30471 -20.4797 -2.27374e-13 -7.5 12.5 -0.000268792 5.26476e-05 0.045067 0 -7.10543e-15 4 4.003 -6.22646 3.65865 -8 0 -1.13687e-13 23.9321 -0.552017 -18.1955 2.27374e-13 -45 -1 -45.1853 2.96106 10.2356 0 -41 -2 29.2014 -8.8935 4.15611 0 -7.5 12.5 -0.000341158 0.103398 0.00335567 -2.27374e-13 -2.84217e-14 4 -13.4873 0.944214 72.4997 
-371.313 91.1353 1661.64 1.43144 2.58578 -118.44 0 8 5.68434e-14 3.45479 9.84415 17.0178 2.27374e-13 8 -5.68434e-14 0.734664 5.42261 6.32099 -2.27374e-13 8 5.68434e-14 0.442265 2.70481 3.17001 0 8 5.68434e-14 0.441663 2.69678 3.16071 0 17 -5.68434e-14 -0.0992843 -1.29224 7.04957 2.27374e-13 10.8 0 -0.00202574 -3.06705 16.5033 5 17 1.13687e-13 0.262773 -5.18684 6.40398 6.45 0 0 -1.04477 0.114727 -3.01422 6.45 -8.52651e-14 0 -13.975 -75.2184 -22.0765 0 -32.4 -2 -33.056 -23.5818 3.95985 -2.27374e-13 -25.65 2 41.4361 12.1469 2.74396 -0.5 -1.5 2.65 -17.6926 -23.2613 14.7152 0 -3.8 3.7 12.4378 23.8526 3.99666 2.27374e-13 -3 2.7 0.0434804 19.9108 -0.0123559 2.27374e-13 -1.9 1.6 3.54281e-06 -4.48981e-06 -2.61297e-06 -2.27374e-13 -8.3 1.9 -8.06968 -20.8596 -1.37209 2.27374e-13 -4.5 0 -0.0712108 0.0404443 -0.0689291 0 -3.4 0 -0.000168431 0.0401383 -0.0665247 -0.25 -2.2 0.4 3.54281e-06 -4.48981e-06 -2.61297e-06 2.27374e-13 -8.3 1 -10.2474 -13.5652 -0.995793 0 -4.65 1.13687e-13 -37.3934 0.00164105 -0.000814857 0 -3.3 2.84217e-13 8.43046 0.0619058 0.0453119 -0.5 -2.15 -0.8 3.54281e-06 -4.48981e-06 -2.61297e-06 0 -7.75 -0.2 -15.2894 0.423472 0.569826 -2.27374e-13 -3.8 -5.68434e-14 -20.6251 0.260238 0.175793 0 -3.4 -2.27374e-13 -70.3208 -0.0432529 0.185031 -0.75 -1.75 -1.85 3.54281e-06 -4.48981e-06 -2.61297e-06 -2.27374e-13 -7.15 -1 -20.2893 7.70512 2.10429 -2.27374e-13 -3 0 -19.2769 0.0111752 0.000325314 0 -2.35 0 -15.3453 0.00691987 0.0021561 -5 17 -5.68434e-14 2.04917 -5.68881 10.1829 -6.45 -5.68434e-14 -1.13687e-13 -1.71485 0.735422 -3.52485 -6.45 -2.84217e-14 0 -44.7592 -42.3206 -12.6676 0 -32.4 -2 32.0781 -40.7565 18.2111 0 -25.65 2 -28.7709 27.195 6.60765 0.5 -1.5 2.65 -47.7054 56.9504 -148.112 -1.13687e-13 -3.8 3.7 -3.75748 13.2392 -3.06595 0 -3 2.7 0.411438 46.614 -0.324818 4.54747e-13 -1.9 1.6 -1.66737e-06 8.94252e-06 1.67335e-06 0 -8.3 1.9 0.91151 8.0451 -0.0979861 0 -4.5 1.13687e-13 7.79859 1.68425 0.0181042 4.54747e-13 -3.4 -2.27374e-13 7.31601 0.020129 0.0286012 0.25 -2.2 0.4 -1.66737e-06 8.94252e-06 1.67335e-06 0 -8.3 1 26.768 17.3769 -5.56476 0 -4.65 -1.13687e-13 47.3254 48.2568 12.3323 -1.13687e-13 -3.3 -2.27374e-13 57.2112 -0.00164455 -0.00783702 0.5 -2.15 -0.8 -1.66737e-06 8.94252e-06 1.67335e-06 2.27374e-13 -7.75 -0.2 56.4705 15.6654 -12.5269 0 -3.8 0 22.519 25.9705 5.83107 1.13687e-13 -3.4 2.27374e-13 32.7216 0.000293784 0.0220965 0.75 -1.75 -1.85 -1.66737e-06 8.94252e-06 1.67335e-06 0 -7.15 -1 67.3258 14.2125 -15.6488 0 -3 0 10.8762 6.62083 0.187523 -1.13687e-13 -2.35 0 12.4022 -0.0335834 -0.0372634 8 -5.68434e-14 1.13687e-13 34.4397 -26.8941 27.5496 0 -45 -1 -27.6201 23.5527 9.11012 0 -41 -2 8.76189 5.89211 -20.3896 -2.27374e-13 -7.5 12.5 -0.000268792 5.26476e-05 0.045067 -2.27374e-13 0 4 3.78606 -5.80449 3.56688 -8 -5.68434e-14 -1.13687e-13 24.1597 -0.827702 -18.2074 0 -45 -1 -45.2631 3.17166 10.3151 0 -41 -2 29.154 -8.86176 4.32565 0 -7.5 12.5 -0.000341158 0.103398 0.00335567 0 -2.84217e-14 4 -13.5186 1.13834 72.5185 
